RobotoFlexCondensed-Bold.ufo
<glyph name="nine" format="2">
  <advance width="1030"/>
  <unicode hex="0039"/>
  <outline>
    <contour>
      <point x="55.93333333333334" y="969.0" type="curve" smooth="yes"/>
      <point x="56" y="1268"/>
      <point x="214" y="1471"/>
      <point x="499.9" y="1471.0" type="curve" smooth="yes"/>
      <point x="769" y="1471"/>
      <point x="965" y="1289"/>
      <point x="965.1" y="834.0" type="curve" smooth="yes"/>
      <point x="965.1" y="798.0" type="line" smooth="yes"/>
      <point x="965" y="291"/>
      <point x="714" y="-30"/>
      <point x="217.13333333333333" y="-29.5" type="curve" smooth="yes"/>
      <point x="193.33333333333334" y="-29.5" type="line"/>
      <point x="193.33333333333334" y="203.66666666666669" type="line"/>
      <point x="215.63333333333333" y="203.66666666666669" type="line" smooth="yes"/>
      <point x="512" y="204"/>
      <point x="668" y="371"/>
      <point x="668.1333333333333" y="794.0" type="curve" smooth="yes"/>
      <point x="668.1333333333333" y="842.0" type="line" smooth="yes"/>
      <point x="668" y="1144"/>
      <point x="615" y="1249"/>
      <point x="499.4" y="1248.8333333333333" type="curve" smooth="yes"/>
      <point x="393" y="1249"/>
      <point x="359" y="1153"/>
      <point x="358.9666666666667" y="973.5" type="curve" smooth="yes"/>
      <point x="359" y="801"/>
      <point x="397" y="701"/>
      <point x="501.9" y="700.8" type="curve" smooth="yes"/>
      <point x="608" y="701"/>
      <point x="672" y="797"/>
      <point x="672.1333333333333" y="965.5" type="curve"/>
      <point x="773.0" y="965.5" type="line"/>
      <point x="773" y="675"/>
      <point x="662" y="484"/>
      <point x="439.8666666666667" y="484.1333333333333" type="curve" smooth="yes"/>
      <point x="198" y="484"/>
      <point x="56" y="676"/>
    </contour>
  </outline>
</glyph>
<glyph name="B" format="2">
  <advance width="1188"/>
  <unicode hex="0042"/>
  <outline>
    <contour>
      <point x="155.0" y="0.0" type="line"/>
      <point x="155.0" y="1456.0" type="line"/>
      <point x="609.2784459590999" y="1456.0" type="line" smooth="yes"/>
      <point x="895" y="1456"/>
      <point x="1060" y="1335"/>
      <point x="1060.1988484258334" y="1072.0512820512668" type="curve" smooth="yes"/>
      <point x="1060" y="910"/>
      <point x="996" y="801"/>
      <point x="901.0706432976166" y="767.9384615384499" type="curve"/>
      <point x="901.0706432976166" y="763.9384615384499" type="line"/>
      <point x="1021" y="730"/>
      <point x="1100" y="610"/>
      <point x="1100.1680791950832" y="417.49743589741666" type="curve" smooth="yes"/>
      <point x="1100" y="153"/>
      <point x="919" y="0"/>
      <point x="638.1707536514" y="0.0" type="curve" smooth="yes"/>
    </contour>
    <contour>
      <point x="449.8297280103667" y="211.82051282051665" type="line"/>
      <point x="626.6630613437" y="211.82051282051665" type="line" smooth="yes"/>
      <point x="748" y="212"/>
      <point x="803" y="297"/>
      <point x="802.9143433950167" y="434.7641025640833" type="curve" smooth="yes"/>
      <point x="803" y="570"/>
      <point x="748" y="655"/>
      <point x="626.6630613437" y="655.0794871794834" type="curve" smooth="yes"/>
      <point x="449.8297280103667" y="655.0794871794834" type="line"/>
    </contour>
    <contour>
      <point x="449.8297280103667" y="856.0589743589667" type="line"/>
      <point x="598.2630613437" y="856.0589743589667" type="line" smooth="yes"/>
      <point x="717" y="856"/>
      <point x="766" y="926"/>
      <point x="765.8374203180666" y="1050.0974358974167" type="curve" smooth="yes"/>
      <point x="766" y="1174"/>
      <point x="717" y="1243"/>
      <point x="598.2630613437" y="1242.8256410256333" type="curve" smooth="yes"/>
      <point x="449.8297280103667" y="1242.8256410256333" type="line"/>
    </contour>
  </outline>
</glyph>
<glyph name="J" format="2">
  <advance width="1029"/>
  <unicode hex="004A"/>
  <outline>
    <contour>
      <point x="25.0" y="448.5" type="curve" smooth="yes"/>
      <point x="25.0" y="464.5" type="line"/>
      <point x="317.9666666666667" y="464.5" type="line"/>
      <point x="317.9666666666667" y="410.5" type="line" smooth="yes"/>
      <point x="318" y="227"/>
      <point x="354" y="199"/>
      <point x="451.4666666666667" y="198.66666666666669" type="curve" smooth="yes"/>
      <point x="548" y="199"/>
      <point x="586" y="234"/>
      <point x="585.9666666666667" y="429.5" type="curve" smooth="yes"/>
      <point x="585.9666666666667" y="1456.0" type="line"/>
      <point x="882.8666666666667" y="1456.0" type="line"/>
      <point x="882.8666666666667" y="487.5" type="line" smooth="yes"/>
      <point x="883" y="125"/>
      <point x="729" y="-30"/>
      <point x="454.4666666666667" y="-29.5" type="curve" smooth="yes"/>
      <point x="180" y="-30"/>
      <point x="25" y="96"/>
    </contour>
  </outline>
</glyph>
<glyph name="c" format="2">
  <advance width="956"/>
  <unicode hex="0063"/>
  <outline>
    <contour>
      <point x="73.0" y="524.4285714285714" type="curve" smooth="yes"/>
      <point x="73.0" y="556.4285714285714" type="line" smooth="yes"/>
      <point x="73" y="927"/>
      <point x="255" y="1110"/>
      <point x="533.2666666666667" y="1110.357142857143" type="curve" smooth="yes"/>
      <point x="796" y="1110"/>
      <point x="933" y="947"/>
      <point x="944.0" y="719.5714285714286" type="curve" smooth="yes"/>
      <point x="945.5" y="701.5714285714286" type="line"/>
      <point x="664.5333333333333" y="701.5714285714286" type="line"/>
      <point x="664.5333333333333" y="714.5714285714286" type="line" smooth="yes"/>
      <point x="665" y="818"/>
      <point x="630" y="893"/>
      <point x="529.7" y="893.0571428571428" type="curve" smooth="yes"/>
      <point x="427" y="893"/>
      <point x="368" y="802"/>
      <point x="368.4666666666667" y="604.9285714285714" type="curve" smooth="yes"/>
      <point x="368.4666666666667" y="475.92857142857144" type="line" smooth="yes"/>
      <point x="368" y="279"/>
      <point x="420" y="186"/>
      <point x="519.6" y="185.73333333333335" type="curve" smooth="yes"/>
      <point x="635" y="186"/>
      <point x="664" y="270"/>
      <point x="664.0333333333333" y="367.2857142857143" type="curve" smooth="yes"/>
      <point x="664.0333333333333" y="378.2857142857143" type="line"/>
      <point x="944.5" y="378.2857142857143" type="line"/>
      <point x="944.5" y="365.7857142857143" type="line" smooth="yes"/>
      <point x="944" y="139"/>
      <point x="800" y="-30"/>
      <point x="524.7333333333333" y="-30.0" type="curve" smooth="yes"/>
      <point x="259" y="-30"/>
      <point x="73" y="154"/>
    </contour>
  </outline>
</glyph>
<glyph name="o" format="2">
  <advance width="1076"/>
  <unicode hex="006F"/>
  <outline>
    <contour>
      <point x="73.0" y="524.4285714285714" type="curve" smooth="yes"/>
      <point x="73.0" y="556.4285714285714" type="line" smooth="yes"/>
      <point x="73" y="926"/>
      <point x="262" y="1110"/>
      <point x="538.1333333333333" y="1110.357142857143" type="curve" smooth="yes"/>
      <point x="815" y="1110"/>
      <point x="1004" y="926"/>
      <point x="1004.3333333333334" y="556.4285714285714" type="curve" smooth="yes"/>
      <point x="1004.3333333333334" y="524.4285714285714" type="line" smooth="yes"/>
      <point x="1004" y="155"/>
      <point x="815" y="-30"/>
      <point x="538.1333333333333" y="-30.0" type="curve" smooth="yes"/>
      <point x="262" y="-30"/>
      <point x="73" y="155"/>
    </contour>
    <contour>
      <point x="368.4666666666667" y="604.9285714285714" type="curve" smooth="yes"/>
      <point x="368.4666666666667" y="475.92857142857144" type="line" smooth="yes"/>
      <point x="368" y="269"/>
      <point x="430" y="191"/>
      <point x="538.1333333333333" y="191.23333333333335" type="curve" smooth="yes"/>
      <point x="646" y="191"/>
      <point x="708" y="269"/>
      <point x="708.3666666666667" y="475.92857142857144" type="curve" smooth="yes"/>
      <point x="708.3666666666667" y="604.9285714285714" type="line" smooth="yes"/>
      <point x="708" y="819"/>
      <point x="651" y="889"/>
      <point x="538.1333333333333" y="889.1238095238095" type="curve" smooth="yes"/>
      <point x="425" y="889"/>
      <point x="368" y="812"/>
    </contour>
  </outline>
</glyph>
<glyph name="cent" format="2">
  <advance width="1020"/>
  <unicode hex="00A2"/>
  <outline>
    <contour>
      <point x="533.2" y="351.0" type="curve" smooth="yes"/>
      <point x="672" y="351"/>
      <point x="679" y="439"/>
      <point x="673.6666666666667" y="536.4333333333334" type="curve"/>
      <point x="956.4" y="536.4333333333334" type="line"/>
      <point x="962" y="306"/>
      <point x="843" y="135"/>
      <point x="538.3333333333334" y="135.26666666666668" type="curve" smooth="yes"/>
      <point x="285" y="135"/>
      <point x="84" y="298"/>
      <point x="84.33333333333333" y="677.2666666666667" type="curve" smooth="yes"/>
      <point x="84.33333333333333" y="703.6" type="line" smooth="yes"/>
      <point x="84" y="1083"/>
      <point x="281" y="1245"/>
      <point x="546.8666666666667" y="1245.1" type="curve" smooth="yes"/>
      <point x="826" y="1245"/>
      <point x="952" y="1081"/>
      <point x="950.9" y="862.4333333333333" type="curve"/>
      <point x="674.1666666666666" y="862.4333333333333" type="line"/>
      <point x="679" y="960"/>
      <point x="658" y="1028"/>
      <point x="543.3" y="1027.8" type="curve" smooth="yes"/>
      <point x="454" y="1028"/>
      <point x="382" y="959"/>
      <point x="382.06666666666666" y="752.1" type="curve" smooth="yes"/>
      <point x="382.06666666666666" y="628.7666666666667" type="line" smooth="yes"/>
      <point x="382" y="422"/>
      <point x="449" y="351"/>
    </contour>
    <contour>
      <point x="440.4" y="0.0" type="line"/>
      <point x="440.4" y="237.0" type="line"/>
      <point x="445.4" y="251.0" type="line"/>
      <point x="445.4" y="708.0" type="line"/>
      <point x="585.4" y="708.0" type="line"/>
      <point x="585.4" y="250.0" type="line"/>
      <point x="590.4" y="240.0" type="line"/>
      <point x="590.4" y="0.0" type="line"/>
    </contour>
    <contour>
      <point x="445.4" y="708.0" type="line"/>
      <point x="445.4" y="1182.0" type="line"/>
      <point x="440.4" y="1192.0" type="line"/>
      <point x="440.4" y="1402.0" type="line"/>
      <point x="590.4" y="1402.0" type="line"/>
      <point x="590.4" y="1192.0" type="line"/>
      <point x="585.4" y="1179.0" type="line"/>
      <point x="585.4" y="708.0" type="line"/>
    </contour>
  </outline>
</glyph>
<glyph name="sterling" format="2">
  <advance width="1034"/>
  <unicode hex="00A3"/>
  <outline>
    <contour>
      <point x="1021.3333333333334" y="0.0" type="line"/>
      <point x="36.0" y="0.0" type="line"/>
      <point x="36.0" y="219.5" type="line"/>
      <point x="92.0" y="219.5" type="line" smooth="yes"/>
      <point x="215" y="220"/>
      <point x="263" y="338"/>
      <point x="247.5" y="497.5" type="curve" smooth="yes"/>
      <point x="195.0" y="1039.0" type="line" smooth="yes"/>
      <point x="167" y="1338"/>
      <point x="300" y="1476"/>
      <point x="577.6666666666666" y="1476.0" type="curve" smooth="yes"/>
      <point x="839" y="1476"/>
      <point x="977" y="1341"/>
      <point x="977.3333333333334" y="1068.0" type="curve" smooth="yes"/>
      <point x="977.3333333333334" y="1052.0" type="line"/>
      <point x="685.3333333333334" y="1052.0" type="line"/>
      <point x="685.3333333333334" y="1068.0" type="line" smooth="yes"/>
      <point x="685" y="1185"/>
      <point x="655" y="1269"/>
      <point x="579.6666666666666" y="1269.0" type="curve" smooth="yes"/>
      <point x="494" y="1269"/>
      <point x="470" y="1176"/>
      <point x="483.0" y="1039.0" type="curve" smooth="yes"/>
      <point x="531.5" y="531.5" type="line" smooth="yes"/>
      <point x="546" y="379"/>
      <point x="506" y="270"/>
      <point x="412.0" y="224.5" type="curve"/>
      <point x="1021.3333333333334" y="224.5" type="line"/>
    </contour>
    <contour>
      <point x="789.8333333333334" y="605.7666666666667" type="line"/>
      <point x="52.0" y="605.7666666666667" type="line"/>
      <point x="52.0" y="781.2333333333333" type="line"/>
      <point x="789.8333333333334" y="781.2333333333333" type="line"/>
    </contour>
  </outline>
</glyph>
<glyph name="section" format="2">
  <advance width="1359"/>
  <unicode hex="00A7"/>
  <guideline x="0" y="1658.0" angle="0" identifier="QzZ5gIiCyn"/>
  <guideline x="0" y="578.0" angle="0" identifier="9Hxjf2sdFw"/>
  <outline>
    <contour>
      <point x="798.0" y="82.5" type="curve"/>
      <point x="798.0" y="309.0" type="line"/>
      <point x="861" y="320"/>
      <point x="898" y="374"/>
      <point x="897.6666666666666" y="457.0" type="curve"/>
      <point x="898" y="560"/>
      <point x="889" y="608"/>
      <point x="635.0" y="679.5" type="curve" smooth="yes"/>
      <point x="363" y="752"/>
      <point x="233" y="881"/>
      <point x="232.33333333333334" y="1092.0" type="curve" smooth="yes"/>
      <point x="232" y="1352"/>
      <point x="411" y="1497"/>
      <point x="673.5" y="1498.0" type="curve" smooth="yes"/>
      <point x="935" y="1499"/>
      <point x="1086" y="1343"/>
      <point x="1085.6666666666667" y="1073.5" type="curve"/>
      <point x="819.6666666666666" y="1073.5" type="line"/>
      <point x="820" y="1207"/>
      <point x="771" y="1270"/>
      <point x="674.5" y="1269.5" type="curve" smooth="yes"/>
      <point x="586" y="1270"/>
      <point x="533" y="1211"/>
      <point x="532.8333333333334" y="1118.0" type="curve" smooth="yes"/>
      <point x="533" y="1033"/>
      <point x="600" y="972"/>
      <point x="782.0" y="924.0" type="curve" smooth="yes"/>
      <point x="1051" y="849"/>
      <point x="1204" y="733"/>
      <point x="1205.1666666666667" y="476.0" type="curve" smooth="yes"/>
      <point x="1205" y="252"/>
      <point x="1053" y="99"/>
    </contour>
    <contour>
      <point x="579.1666666666666" y="927.5" type="curve"/>
      <point x="578.6666666666666" y="702.5" type="line"/>
      <point x="506" y="695"/>
      <point x="465" y="638"/>
      <point x="464.83333333333337" y="560.5" type="curve" smooth="yes"/>
      <point x="465" y="471"/>
      <point x="465" y="441"/>
      <point x="720.0" y="362.0" type="curve" smooth="yes"/>
      <point x="1005" y="273"/>
      <point x="1123" y="134"/>
      <point x="1123.6666666666667" y="-98.5" type="curve" smooth="yes"/>
      <point x="1124" y="-388"/>
      <point x="955" y="-529"/>
      <point x="645.5" y="-529.0" type="curve" smooth="yes"/>
      <point x="326" y="-529"/>
      <point x="154" y="-372"/>
      <point x="154.33333333333334" y="-58.0" type="curve"/>
      <point x="452.83333333333337" y="-57.0" type="line"/>
      <point x="453" y="-213"/>
      <point x="492" y="-302"/>
      <point x="645.0" y="-301.5" type="curve" smooth="yes"/>
      <point x="776" y="-302"/>
      <point x="825" y="-239"/>
      <point x="824.6666666666666" y="-132.5" type="curve" smooth="yes"/>
      <point x="825" y="-19"/>
      <point x="765" y="48"/>
      <point x="564.0" y="100.0" type="curve" smooth="yes"/>
      <point x="293" y="172"/>
      <point x="157" y="301"/>
      <point x="155.83333333333334" y="533.0" type="curve" smooth="yes"/>
      <point x="156" y="744"/>
      <point x="302" y="916"/>
    </contour>
  </outline>
</glyph>
<glyph name="micro" format="2">
  <advance width="1105"/>
  <unicode hex="00B5"/>
  <outline>
    <contour>
      <point x="210.86666666666667" y="1052.0" type="line"/>
      <point x="499.8333333333333" y="1052.0" type="line"/>
      <point x="367.8333333333333" y="371.0" type="line" smooth="yes"/>
      <point x="344" y="257"/>
      <point x="356" y="208"/>
      <point x="432.8333333333333" y="207.5" type="curve" smooth="yes"/>
      <point x="494" y="208"/>
      <point x="536" y="237"/>
      <point x="610.9333333333334" y="346.0" type="curve"/>
      <point x="747.9333333333334" y="1052.0" type="line"/>
      <point x="1044.9333333333334" y="1052.0" type="line"/>
      <point x="840.9333333333334" y="0.0" type="line"/>
      <point x="561.9333333333334" y="0.0" type="line"/>
      <point x="577.9333333333334" y="125.0" type="line"/>
      <point x="571.9333333333334" y="125.0" type="line"/>
      <point x="509" y="29"/>
      <point x="450" y="-20"/>
      <point x="381.56666666666666" y="-20.0" type="curve" smooth="yes"/>
      <point x="318" y="-20"/>
      <point x="296" y="3"/>
      <point x="301.8333333333333" y="32.0" type="curve"/>
      <point x="215.83333333333331" y="-416.0" type="line"/>
      <point x="-73.13333333333333" y="-416.0" type="line"/>
    </contour>
  </outline>
</glyph>
<glyph name="ordmasculine" format="2">
  <advance width="859"/>
  <unicode hex="00BA"/>
  <guideline x="0" y="1975.0" angle="0" identifier="Jnt0R9CyOf"/>
  <outline>
    <contour>
      <point x="83.8" y="1058.0" type="curve"/>
      <point x="83.8" y="1110.0" type="line"/>
      <point x="84" y="1359"/>
      <point x="214" y="1478"/>
      <point x="430.3" y="1477.5" type="curve" smooth="yes"/>
      <point x="645" y="1478"/>
      <point x="776" y="1359"/>
      <point x="776.8" y="1110.0" type="curve"/>
      <point x="776.8" y="1058.0" type="line"/>
      <point x="776" y="810"/>
      <point x="646" y="691"/>
      <point x="431.3" y="691.0" type="curve" smooth="yes"/>
      <point x="214" y="691"/>
      <point x="84" y="810"/>
    </contour>
    <contour>
      <point x="312.3" y="1121.5" type="curve"/>
      <point x="312.3" y="1046.5" type="line"/>
      <point x="312" y="906"/>
      <point x="360" y="866"/>
      <point x="431.3" y="865.5" type="curve" smooth="yes"/>
      <point x="501" y="866"/>
      <point x="548" y="906"/>
      <point x="548.3" y="1046.5" type="curve"/>
      <point x="548.3" y="1121.5" type="line"/>
      <point x="548" y="1261"/>
      <point x="499" y="1302"/>
      <point x="429.8" y="1301.5" type="curve" smooth="yes"/>
      <point x="361" y="1302"/>
      <point x="312" y="1261"/>
    </contour>
  </outline>
</glyph>
<glyph name="tilde" format="2">
  <advance width="1024"/>
  <unicode hex="02DC"/>
  <outline>
    <contour>
      <point x="127.0" y="1318.0" type="line"/>
      <point x="175.24" y="1421.18"/>
      <point x="288.68" y="1514.0"/>
      <point x="386.5" y="1514.0" type="curve" smooth="yes"/>
      <point x="446.8" y="1514.0"/>
      <point x="499.23" y="1497.18"/>
      <point x="553.5" y="1461.0" type="curve" smooth="yes"/>
      <point x="602.41" y="1429.51"/>
      <point x="661.89" y="1390.0"/>
      <point x="717.5" y="1390.0" type="curve" smooth="yes"/>
      <point x="776.46" y="1390.0"/>
      <point x="828.5" y="1434.07"/>
      <point x="862.0" y="1487.0" type="curve"/>
      <point x="951.0" y="1363.0" type="line"/>
      <point x="895.39" y="1247.76"/>
      <point x="785.75" y="1190.0"/>
      <point x="702.0" y="1190.0" type="curve" smooth="yes"/>
      <point x="630.31" y="1190.0"/>
      <point x="557.56" y="1230.37"/>
      <point x="512.0" y="1256.5" type="curve" smooth="yes"/>
      <point x="461.75" y="1283.3"/>
      <point x="411.88" y="1314.5"/>
      <point x="369.0" y="1314.5" type="curve" smooth="yes"/>
      <point x="300.65999999999997" y="1314.5"/>
      <point x="236.47" y="1245.2"/>
      <point x="209.0" y="1205.0" type="curve"/>
    </contour>
  </outline>
</glyph>
<glyph name="commaaccentcomb" format="2">
  <advance width="1024"/>
  <unicode hex="0326"/>
  <outline>
    <contour>
      <point x="326.5" y="-539.0" type="line"/>
      <point x="368.71" y="-387.58"/>
      <point x="388.67" y="-321.59000000000003"/>
      <point x="421.5" y="-136.0" type="curve"/>
      <point x="720.5" y="-133.5" type="line"/>
      <point x="583.5" y="-542.0" type="line"/>
    </contour>
  </outline>
</glyph>
<glyph name="gamma" format="2">
  <advance width="852"/>
  <unicode hex="03B3"/>
  <outline>
    <contour>
      <point x="280" y="-366.0" type="line"/>
      <point x="280" y="-25" type="line"/>
      <point x="-21.0" y="1080" type="line"/>
      <point x="280.0" y="1080" type="line"/>
      <point x="410" y="476" type="line" smooth="yes"/>
      <point x="426" y="403"/>
      <point x="432" y="357"/>
      <point x="436" y="316" type="curve"/>
      <point x="443" y="316" type="line"/>
      <point x="444" y="357"/>
      <point x="452" y="402"/>
      <point x="468" y="476" type="curve" smooth="yes"/>
      <point x="599" y="1080" type="line"/>
      <point x="866" y="1080" type="line"/>
      <point x="560" y="-29" type="line"/>
      <point x="560" y="-366.0" type="line"/>
    </contour>
  </outline>
</glyph>
<glyph name="theta" format="2">
  <advance width="1050"/>
  <unicode hex="03B8"/>
  <outline>
    <contour>
      <point x="525.6333333333333" y="-30.0" type="curve" smooth="yes"/>
      <point x="259.5986666666667" y="-30.0"/>
      <point x="78.0" y="126.86666666666662"/>
      <point x="78.0" y="622.6666666666666" type="curve"/>
      <point x="78.0" y="913.3333333333334" type="line"/>
      <point x="78.0" y="1395.7333333333331"/>
      <point x="258" y="1551.0"/>
      <point x="526" y="1551.0" type="curve" smooth="yes"/>
      <point x="794" y="1551.0"/>
      <point x="972.8333333333334" y="1395.7333333333331"/>
      <point x="972.8333333333334" y="913.3333333333334" type="curve"/>
      <point x="972.8333333333334" y="622.6666666666666" type="line"/>
      <point x="972.8333333333334" y="126.86666666666662"/>
      <point x="793.008" y="-30.0"/>
    </contour>
    <contour>
      <point x="526.1333333333333" y="192.73333333333335" type="curve" smooth="yes"/>
      <point x="633.0653333333335" y="192.73333333333335"/>
      <point x="685.9333333333334" y="257.83799999999997"/>
      <point x="685.9333333333334" y="565.1" type="curve"/>
      <point x="685.9333333333334" y="964.9" type="line" smooth="yes"/>
      <point x="692.7673333333332" y="1272.2513333333334"/>
      <point x="642" y="1332"/>
      <point x="524" y="1332" type="curve" smooth="yes"/>
      <point x="410" y="1332"/>
      <point x="364.4" y="1272.2513333333334"/>
      <point x="364.4" y="964.9" type="curve" smooth="yes"/>
      <point x="364.4" y="565.1" type="line" smooth="yes"/>
      <point x="364.4" y="257.83799999999997"/>
      <point x="420.5413333333333" y="192.73333333333335"/>
    </contour>
    <contour>
      <point x="207.0" y="661.847619047619" type="line"/>
      <point x="207.0" y="879.5809523809523" type="line"/>
      <point x="827.3666666666667" y="879.5809523809523" type="line"/>
      <point x="827.3666666666667" y="661.847619047619" type="line"/>
    </contour>
  </outline>
</glyph>
<glyph name="lambda" format="2">
  <advance width="850"/>
  <unicode hex="03BB"/>
  <outline>
    <contour>
      <point x="-21.0" y="0.0" type="line"/>
      <point x="317.6047619047619" y="1054.9285714285713" type="line"/>
      <point x="304.87619047619046" y="1099.9285714285713" type="line" smooth="yes"/>
      <point x="254.96438095238096" y="1275.7557142857142"/>
      <point x="204" y="1332.0"/>
      <point x="113" y="1332.0" type="curve"/>
      <point x="83" y="1332.0"/>
      <point x="65" y="1325"/>
      <point x="37" y="1314.0" type="curve"/>
      <point x="28" y="1524.0" type="line"/>
      <point x="67" y="1537"/>
      <point x="112" y="1551.0"/>
      <point x="191" y="1551.0" type="curve" smooth="yes"/>
      <point x="405" y="1551.0"/>
      <point x="480.9678095238095" y="1443.9513333333332"/>
      <point x="545.1857142857143" y="1217.0" type="curve" smooth="yes"/>
      <point x="874.6571428571428" y="0.0" type="line"/>
      <point x="571.9238095238095" y="0.0" type="line"/>
      <point x="458" y="526" type="line" smooth="yes"/>
      <point x="445" y="587"/>
      <point x="437.0" y="651.0"/>
      <point x="433" y="692" type="curve"/>
      <point x="428.4761904761905" y="692.0714285714286" type="line"/>
      <point x="422.75247619047616" y="650.0592380952381"/>
      <point x="412.65638095238097" y="591.9915238095239"/>
      <point x="395.9" y="526.3761904761905" type="curve" smooth="yes"/>
      <point x="256.3" y="0.0" type="line"/>
    </contour>
  </outline>
</glyph>
<glyph name="xi" format="2">
  <advance width="806"/>
  <unicode hex="03BE"/>
  <outline>
    <contour>
      <point x="514.9666666666667" y="-348.0" type="line"/>
      <point x="532.8333333333333" y="-280.50866666666667"/>
      <point x="547.3666666666667" y="-197.44666666666666"/>
      <point x="547.3666666666667" y="-141.16666666666666" type="curve" smooth="yes"/>
      <point x="547.3666666666667" y="-80.24133333333333"/>
      <point x="528.7061904761905" y="-55.05780952380953"/>
      <point x="436.5333333333333" y="-20.46666666666667" type="curve" smooth="yes"/>
      <point x="358.81904761904764" y="9.038095238095238" type="line" smooth="yes"/>
      <point x="184.3510476190476" y="69.18495238095238"/>
      <point x="72.91066666666667" y="152.69095238095238"/>
      <point x="73.0" y="390.2857142857143" type="curve" smooth="yes"/>
      <point x="73.0" y="610.8305714285715"/>
      <point x="179.48266666666666" y="733.210761904762"/>
      <point x="323.6666666666667" y="769.9714285714285" type="curve"/>
      <point x="324.44761904761907" y="751.9714285714285" type="line"/>
      <point x="196.9880952380952" y="792.3628571428573"/>
      <point x="111.4" y="889.3085714285714"/>
      <point x="111.4" y="1047.4285714285713" type="curve" smooth="yes"/>
      <point x="111.4" y="1194.8285714285714"/>
      <point x="235" y="1315"/>
      <point x="366" y="1327" type="curve"/>
      <point x="366" y="1299" type="line"/>
      <point x="78" y="1299" type="line"/>
      <point x="78" y="1532.0" type="line"/>
      <point x="792" y="1532.0" type="line"/>
      <point x="792" y="1306" type="line"/>
      <point x="495" y="1294"/>
      <point x="401.56666666666666" y="1236.6220952380952"/>
      <point x="401.56666666666666" y="1077.7619047619048" type="curve" smooth="yes"/>
      <point x="401.56666666666666" y="978.3339047619047"/>
      <point x="462.82399999999996" y="906.8780952380953"/>
      <point x="650.0666666666667" y="904.5809523809523" type="curve" smooth="yes"/>
      <point x="735.8" y="904.5809523809523" type="line"/>
      <point x="735.8" y="671.847619047619" type="line"/>
      <point x="650.0666666666667" y="671.847619047619" type="line" smooth="yes"/>
      <point x="415.47733333333326" y="671.847619047619"/>
      <point x="370.9666666666667" y="603.7905714285715"/>
      <point x="370.9666666666667" y="458.2857142857143" type="curve" smooth="yes"/>
      <point x="370.9666666666667" y="316.89019047619047"/>
      <point x="438.7944761904762" y="276.3350476190476"/>
      <point x="526.3666666666667" y="246.0" type="curve" smooth="yes"/>
      <point x="572.8666666666667" y="231.0" type="line" smooth="yes"/>
      <point x="746.4860000000001" y="175.83666666666664"/>
      <point x="795.1" y="90.20933333333333"/>
      <point x="795.1" y="-34.5" type="curve" smooth="yes"/>
      <point x="795.8593333333333" y="-112.89"/>
      <point x="769.5840000000001" y="-242.14"/>
      <point x="732.6" y="-348.0" type="curve"/>
    </contour>
  </outline>
</glyph>
<glyph name="upsilon" format="2">
  <advance width="1056"/>
  <unicode hex="03C5"/>
  <anchor x="533.0" y="1080" name="GRK_top"/>
  <outline>
    <contour>
      <point x="532.0" y="-20.0" type="curve" smooth="yes"/>
      <point x="239.0" y="-20.0"/>
      <point x="120.0" y="111"/>
      <point x="120.0" y="383" type="curve" smooth="yes"/>
      <point x="120.0" y="1080" type="line"/>
      <point x="408.0" y="1080" type="line"/>
      <point x="408.0" y="407" type="line" smooth="yes"/>
      <point x="408.0" y="262"/>
      <point x="448.0" y="203"/>
      <point x="532.0" y="203" type="curve" smooth="yes"/>
      <point x="617.0" y="203"/>
      <point x="658.0" y="262"/>
      <point x="658.0" y="407" type="curve" smooth="yes"/>
      <point x="658.0" y="1080" type="line"/>
      <point x="946.0" y="1080" type="line"/>
      <point x="946.0" y="383" type="line" smooth="yes"/>
      <point x="946.0" y="111"/>
      <point x="827.0" y="-20.0"/>
    </contour>
  </outline>
</glyph>
<glyph name="psi" format="2">
  <advance width="1439"/>
  <unicode hex="03C8"/>
  <outline>
    <contour>
      <point x="623" y="-416" type="line"/>
      <point x="623" y="-20" type="line"/>
      <point x="277" y="-14"/>
      <point x="120.0" y="127"/>
      <point x="120.0" y="484" type="curve" smooth="yes"/>
      <point x="120.0" y="1080" type="line"/>
      <point x="408" y="1080" type="line"/>
      <point x="408" y="494" type="line" smooth="yes"/>
      <point x="408" y="293"/>
      <point x="465" y="213"/>
      <point x="623" y="201" type="curve"/>
      <point x="623" y="1531.0" type="line"/>
      <point x="897" y="1531" type="line"/>
      <point x="897" y="201" type="line"/>
      <point x="1052" y="211"/>
      <point x="1112" y="290"/>
      <point x="1112" y="494" type="curve" smooth="yes"/>
      <point x="1112" y="1080" type="line"/>
      <point x="1402" y="1080" type="line"/>
      <point x="1402" y="484" type="line" smooth="yes"/>
      <point x="1402" y="127"/>
      <point x="1244" y="-14"/>
      <point x="897" y="-20" type="curve"/>
      <point x="897" y="-416" type="line"/>
    </contour>
  </outline>
</glyph>
<glyph name="Tshe" format="2">
  <advance width="1489"/>
  <unicode hex="040B"/>
  <guideline x="568.0" y="683.0" angle="90.0" identifier="juO2xYoEN4"/>
  <outline>
    <contour>
      <point x="1070.2" y="0.0" type="line"/>
      <point x="1072.3333333333333" y="333.3333333333333" type="line" smooth="yes"/>
      <point x="1073.7626666666667" y="601.1546666666668"/>
      <point x="987.7353333333333" y="653.7666666666667"/>
      <point x="848.8666666666667" y="653.7666666666667" type="curve" smooth="yes"/>
      <point x="715.9503363363336" y="653.7666666666667"/>
      <point x="623.4653333333334" y="639.226"/>
      <point x="536.6333333333333" y="620.6" type="curve"/>
      <point x="536.6333333333333" y="847.3333333333334" type="line"/>
      <point x="661.4766666666666" y="871.498"/>
      <point x="716.0911794872144" y="881.5"/>
      <point x="870.9333333333334" y="881.5" type="curve" smooth="yes"/>
      <point x="1179.2673333333332" y="881.5"/>
      <point x="1368.6666666666667" y="767.352"/>
      <point x="1368.6666666666667" y="337.0333333333333" type="curve" smooth="yes"/>
      <point x="1368.6666666666667" y="0.0" type="line"/>
    </contour>
    <contour>
      <point x="23.0" y="1228.3333333333333" type="line"/>
      <point x="23.0" y="1456.0" type="line"/>
      <point x="1030.7333333333333" y="1456.0" type="line"/>
      <point x="1030.7333333333333" y="1228.3333333333333" type="line"/>
      <point x="685.8666666666667" y="1228.3333333333333" type="line"/>
      <point x="685.8666666666667" y="0.0" type="line"/>
      <point x="388.4666666666667" y="0.0" type="line"/>
      <point x="388.4666666666667" y="1228.3333333333333" type="line"/>
    </contour>
  </outline>
</glyph>
<glyph name="Icyr" format="2">
  <advance width="1346"/>
  <unicode hex="0418"/>
  <guideline x="739.0" y="930.0" angle="90.0" identifier="jpSOnFR6u4"/>
  <outline>
    <contour>
      <point x="1190.9333333333334" y="0.0" type="line"/>
      <point x="892.4666666666667" y="0.0" type="line"/>
      <point x="892.4666666666667" y="871.0" type="line" smooth="yes"/>
      <point x="892.4666666666667" y="922.2773333333333"/>
      <point x="892.4013333333334" y="985.116"/>
      <point x="896.6" y="1037.7333333333333" type="curve"/>
      <point x="888.0333333333333" y="1037.7333333333333" type="line"/>
      <point x="872.3106666666666" y="982.838"/>
      <point x="855.2093333333333" y="939.8206666666667"/>
      <point x="835.4666666666667" y="891.0" type="curve" smooth="yes"/>
      <point x="479.5333333333333" y="0.0" type="line"/>
      <point x="155.0" y="0.0" type="line"/>
      <point x="155.0" y="1456.0" type="line"/>
      <point x="453.4666666666667" y="1456.0" type="line"/>
      <point x="453.4666666666667" y="598.8666666666667" type="line" smooth="yes"/>
      <point x="453.4666666666667" y="550.448"/>
      <point x="454.59866666666665" y="470.97333333333336"/>
      <point x="450.4" y="418.26666666666665" type="curve"/>
      <point x="458.9" y="418.26666666666665" type="line"/>
      <point x="471.36199999999997" y="466.55133333333333"/>
      <point x="497.4526666666667" y="542.006"/>
      <point x="513.6666666666666" y="581.0" type="curve" smooth="yes"/>
      <point x="866.4" y="1456.0" type="line"/>
      <point x="1190.9333333333334" y="1456.0" type="line"/>
    </contour>
  </outline>
</glyph>
<glyph name="Ef" format="2">
  <advance width="1556"/>
  <unicode hex="0424"/>
  <outline>
    <contour>
      <point x="924.9333333333334" y="1476.0" type="line"/>
      <point x="924.9333333333334" y="1293.0" type="line"/>
      <point x="931.6" y="1293.0" type="line" smooth="yes"/>
      <point x="1293.9806666666666" y="1293.0"/>
      <point x="1494.1" y="1083.629082733825"/>
      <point x="1494.1" y="741.0" type="curve" smooth="yes"/>
      <point x="1494.1" y="396.21895204259704"/>
      <point x="1293.9806666666666" y="189.0"/>
      <point x="931.6" y="189.0" type="curve" smooth="yes"/>
      <point x="924.9333333333334" y="189.0" type="line"/>
      <point x="924.9333333333334" y="-20.0" type="line"/>
      <point x="631.0" y="-20.0" type="line"/>
      <point x="631.0" y="189.0" type="line"/>
      <point x="624.3333333333334" y="189.0" type="line" smooth="yes"/>
      <point x="262.712" y="189.0"/>
      <point x="61.833333333333336" y="397.385381882741"/>
      <point x="61.833333333333336" y="741.5" type="curve" smooth="yes"/>
      <point x="61.833333333333336" y="1084.8026978417029"/>
      <point x="262.712" y="1293.0"/>
      <point x="624.3333333333334" y="1293.0" type="curve" smooth="yes"/>
      <point x="631.0" y="1293.0" type="line"/>
      <point x="631.0" y="1476.0" type="line"/>
    </contour>
    <contour>
      <point x="931.6" y="1067.5" type="curve" smooth="yes"/>
      <point x="924.9333333333334" y="1067.5" type="line"/>
      <point x="924.9333333333334" y="414.5" type="line"/>
      <point x="931.6" y="414.5" type="line" smooth="yes"/>
      <point x="1109.3733333333332" y="414.5"/>
      <point x="1195.8666666666668" y="526.94"/>
      <point x="1195.8666666666668" y="740.0" type="curve" smooth="yes"/>
      <point x="1195.8666666666668" y="947.7"/>
      <point x="1109.3733333333332" y="1067.5"/>
    </contour>
    <contour>
      <point x="624.3333333333334" y="1067.5" type="line" smooth="yes"/>
      <point x="446.56" y="1067.5"/>
      <point x="360.06666666666666" y="951.54"/>
      <point x="360.06666666666666" y="742.5" type="curve" smooth="yes"/>
      <point x="360.06666666666666" y="530.78"/>
      <point x="446.56" y="414.5"/>
      <point x="624.3333333333334" y="414.5" type="curve" smooth="yes"/>
      <point x="631.0" y="414.5" type="line"/>
      <point x="631.0" y="1067.5" type="line"/>
    </contour>
  </outline>
</glyph>
<glyph name="Che" format="2">
  <advance width="1319"/>
  <unicode hex="0427"/>
  <guideline x="1123.0" y="741.0" angle="90.0" identifier="nfCxFSb4p1"/>
  <outline>
    <contour>
      <point x="437.0" y="1130.6666666666667" type="line" smooth="yes"/>
      <point x="437.0" y="834.7053333333332"/>
      <point x="537.9580131233517" y="774.7333333333333"/>
      <point x="709.8" y="774.7333333333333" type="curve" smooth="yes"/>
      <point x="834.3306666666667" y="774.7333333333333"/>
      <point x="914.0146666666667" y="790.384"/>
      <point x="1013.8" y="811.4666666666667" type="curve"/>
      <point x="1013.8" y="587.7333333333333" type="line"/>
      <point x="869.9055265428503" y="556.8387096021446"/>
      <point x="778.269894736828" y="546.0"/>
      <point x="658.6666666666666" y="546.0" type="curve" smooth="yes"/>
      <point x="355.2533403263254" y="546.0"/>
      <point x="140.66666666666666" y="662.9333333333332"/>
      <point x="140.66666666666666" y="1060.4666666666667" type="curve" smooth="yes"/>
      <point x="140.66666666666666" y="1456.0" type="line"/>
      <point x="437.0" y="1456.0" type="line"/>
    </contour>
    <contour>
      <point x="1163.6" y="1456.0" type="line"/>
      <point x="1163.6" y="0.0" type="line"/>
      <point x="865.1333333333333" y="0.0" type="line"/>
      <point x="865.1333333333333" y="1456.0" type="line"/>
    </contour>
  </outline>
</glyph>
<glyph name="de" format="2">
  <advance width="1116"/>
  <unicode hex="0434"/>
  <outline>
    <contour>
      <point x="816.8" y="-270.0" type="line"/>
      <point x="816.8" y="0.0" type="line"/>
      <point x="289.0" y="0.0" type="line"/>
      <point x="289.0" y="-270.0" type="line"/>
      <point x="10.0" y="-270.0" type="line"/>
      <point x="10.0" y="222.5" type="line"/>
      <point x="1095.8" y="222.5" type="line"/>
      <point x="1095.8" y="-270.0" type="line"/>
    </contour>
    <contour>
      <point x="439.93333333333334" y="832.5" type="line"/>
      <point x="433.2" y="531.7" type="line" smooth="yes"/>
      <point x="426.58933333333334" y="313.94999999999993"/>
      <point x="396.5833333333333" y="225.762"/>
      <point x="366.43333333333334" y="159.7" type="curve"/>
      <point x="89.73333333333333" y="159.7" type="line"/>
      <point x="136.4993333333333" y="233.48933333333332"/>
      <point x="172.5306666666667" y="357.1146666666666"/>
      <point x="177.53333333333333" y="564.1" type="curve" smooth="yes"/>
      <point x="190.26666666666665" y="1055.0" type="line"/>
      <point x="967.4666666666667" y="1055.0" type="line"/>
      <point x="967.4666666666667" y="0.0" type="line"/>
      <point x="679.0" y="0.0" type="line"/>
      <point x="679.0" y="832.5" type="line"/>
    </contour>
  </outline>
</glyph>
<glyph name="ze" format="2">
  <advance width="915"/>
  <unicode hex="0437"/>
  <outline>
    <contour>
      <point x="436.1333333333333" y="-30.0" type="curve" smooth="yes"/>
      <point x="172.29827415728892" y="-30.0"/>
      <point x="2.4000000000000057" y="73.66266666666664"/>
      <point x="2.4000000000000057" y="315.6666666666667" type="curve" smooth="yes"/>
      <point x="2.4000000000000057" y="320.6666666666667" type="line"/>
      <point x="282.8666666666667" y="320.6666666666667" type="line"/>
      <point x="282.8666666666667" y="315.6666666666667" type="line" smooth="yes"/>
      <point x="282.8666666666667" y="212.08466666666666"/>
      <point x="337.2433558897094" y="170.3"/>
      <point x="429.6333333333333" y="170.3" type="curve" smooth="yes"/>
      <point x="521.6126996197659" y="170.3"/>
      <point x="559.2" y="230.74854347828997"/>
      <point x="559.2" y="314.5" type="curve" smooth="yes"/>
      <point x="559.2" y="399.70166666666665"/>
      <point x="513.9246666666667" y="440.1333333333333"/>
      <point x="386.1333333333333" y="440.1333333333333" type="curve" smooth="yes"/>
      <point x="294.8" y="440.1333333333333" type="line"/>
      <point x="294.8" y="635.2" type="line"/>
      <point x="393.4666666666667" y="635.2" type="line" smooth="yes"/>
      <point x="489.3610631578987" y="635.2"/>
      <point x="526.2" y="674.3080000000001"/>
      <point x="526.2" y="762.0333333333333" type="curve" smooth="yes"/>
      <point x="526.2" y="836.6266666666668"/>
      <point x="483.3013333333334" y="884.7666666666667"/>
      <point x="407.1" y="884.7666666666667" type="curve" smooth="yes"/>
      <point x="311.826" y="884.7666666666667"/>
      <point x="290.06666666666666" y="815.3933333333334"/>
      <point x="290.06666666666666" y="736.3333333333334" type="curve" smooth="yes"/>
      <point x="290.06666666666666" y="731.3333333333334" type="line"/>
      <point x="9.599999999999994" y="731.3333333333334" type="line"/>
      <point x="9.599999999999994" y="736.3333333333334" type="line" smooth="yes"/>
      <point x="9.599999999999994" y="950.3313333333333"/>
      <point x="164.32599999999996" y="1085.5"/>
      <point x="442.73333333333335" y="1085.5" type="curve" smooth="yes"/>
      <point x="688.936" y="1085.5"/>
      <point x="829.7" y="981.5953333333334"/>
      <point x="829.7" y="786.0" type="curve" smooth="yes"/>
      <point x="829.7" y="657.0026666666666"/>
      <point x="746.1996022443883" y="574.5984469210559"/>
      <point x="605.1333333333333" y="546.1333333333333" type="curve"/>
      <point x="605.1333333333333" y="543.1333333333333" type="line"/>
      <point x="789.7630101825036" y="518.2506898495141"/>
      <point x="861.7" y="434.6093333333333"/>
      <point x="861.7" y="296.5" type="curve" smooth="yes"/>
      <point x="861.7" y="99.0733333333333"/>
      <point x="713.2425602364895" y="-30.0"/>
    </contour>
  </outline>
</glyph>
<glyph name="icyr" format="2">
  <advance width="1111"/>
  <unicode hex="0438"/>
  <outline>
    <contour>
      <point x="418.4666666666667" y="555.0" type="line" smooth="yes"/>
      <point x="418.4666666666667" y="514.8"/>
      <point x="417.8066666666667" y="460.2"/>
      <point x="416.4666666666667" y="420.0" type="curve"/>
      <point x="423.4666666666667" y="420.0" type="line"/>
      <point x="440.1273333333333" y="452.7406666666667"/>
      <point x="447.408" y="479.30066666666664"/>
      <point x="472.6" y="535.0" type="curve" smooth="yes"/>
      <point x="692.9666666666667" y="1055.0" type="line"/>
      <point x="981.4333333333334" y="1055.0" type="line"/>
      <point x="981.4333333333334" y="0.0" type="line"/>
      <point x="692.9666666666667" y="0.0" type="line"/>
      <point x="692.9666666666667" y="505.06666666666666" type="line" smooth="yes"/>
      <point x="692.9666666666667" y="545.2666666666665"/>
      <point x="693.6266666666667" y="599.8666666666666"/>
      <point x="694.9666666666667" y="640.0666666666666" type="curve"/>
      <point x="687.9666666666667" y="640.0666666666666" type="line"/>
      <point x="671.3059999999999" y="605.986"/>
      <point x="663.3553333333333" y="580.096"/>
      <point x="638.8333333333334" y="525.0666666666666" type="curve" smooth="yes"/>
      <point x="418.4666666666667" y="0.0" type="line"/>
      <point x="130.0" y="0.0" type="line"/>
      <point x="130.0" y="1055.0" type="line"/>
      <point x="418.4666666666667" y="1055.0" type="line"/>
    </contour>
  </outline>
</glyph>
<glyph name="em" format="2">
  <advance width="1398"/>
  <unicode hex="043C"/>
  <outline>
    <contour>
      <point x="148.0" y="0.0" type="line"/>
      <point x="148.0" y="1055.0" type="line"/>
      <point x="544.2333333333333" y="1055.0" type="line"/>
      <point x="673.4" y="477.5" type="line" smooth="yes"/>
      <point x="693.634" y="395.84933333333333"/>
      <point x="697.3366666666667" y="376.16"/>
      <point x="703.3666666666667" y="344.0" type="curve"/>
      <point x="712.3666666666667" y="344.0" type="line"/>
      <point x="718.3966666666666" y="376.16"/>
      <point x="721.0993333333333" y="390.8206666666667"/>
      <point x="741.3333333333334" y="476.0" type="curve" smooth="yes"/>
      <point x="870.0" y="1055.0" type="line"/>
      <point x="1268.3" y="1055.0" type="line"/>
      <point x="1268.3" y="0.0" type="line"/>
      <point x="979.0" y="0.0" type="line"/>
      <point x="979.0" y="629.0" type="line" smooth="yes"/>
      <point x="979.0" y="714.76"/>
      <point x="981.32" y="743.85"/>
      <point x="984.0" y="774.0" type="curve"/>
      <point x="975.0" y="774.0" type="line"/>
      <point x="967.63" y="744.52"/>
      <point x="959.6113333333333" y="716.3306666666667"/>
      <point x="939.4666666666667" y="632.0" type="curve" smooth="yes"/>
      <point x="791.8666666666667" y="0.0" type="line"/>
      <point x="576.3666666666667" y="0.0" type="line"/>
      <point x="424.56666666666666" y="635.0" type="line" smooth="yes"/>
      <point x="404.9133333333333" y="709.2806666666668"/>
      <point x="401.60333333333335" y="743.85"/>
      <point x="394.23333333333335" y="774.0" type="curve"/>
      <point x="384.23333333333335" y="774.0" type="line"/>
      <point x="386.24333333333334" y="743.85"/>
      <point x="389.23333333333335" y="715.73"/>
      <point x="389.23333333333335" y="636.0" type="curve" smooth="yes"/>
      <point x="389.23333333333335" y="0.0" type="line"/>
    </contour>
  </outline>
</glyph>
<glyph name="soft" format="2">
  <advance width="1029"/>
  <unicode hex="044C"/>
  <outline>
    <contour>
      <point x="418.4666666666667" y="1055.0" type="line"/>
      <point x="418.4666666666667" y="704.3333333333334" type="line"/>
      <point x="565.1333333333333" y="704.3333333333334" type="line" smooth="yes"/>
      <point x="831.436" y="704.3333333333334"/>
      <point x="970.6" y="571.928"/>
      <point x="970.6" y="349.6666666666667" type="curve" smooth="yes"/>
      <point x="970.6" y="122.71533333333332"/>
      <point x="831.436" y="0.0"/>
      <point x="565.1333333333333" y="0.0" type="curve" smooth="yes"/>
      <point x="130.0" y="0.0" type="line"/>
      <point x="130.0" y="1055.0" type="line"/>
    </contour>
    <contour>
      <point x="512.1333333333333" y="500.3333333333333" type="curve" smooth="yes"/>
      <point x="418.4666666666667" y="500.3333333333333" type="line"/>
      <point x="418.4666666666667" y="204.0" type="line"/>
      <point x="512.1333333333333" y="204.0" type="line" smooth="yes"/>
      <point x="633.4033333333333" y="204.0"/>
      <point x="681.1333333333333" y="256.5253333333333"/>
      <point x="681.1333333333333" y="354.1666666666667" type="curve" smooth="yes"/>
      <point x="681.1333333333333" y="445.10800000000006"/>
      <point x="634.0733333333334" y="500.3333333333333"/>
    </contour>
  </outline>
</glyph>
<glyph name="ya" format="2">
  <advance width="1113"/>
  <unicode hex="044F"/>
  <outline>
    <contour>
      <point x="392.1333333333333" y="0.0" type="line"/>
      <point x="78.13333333333333" y="0.0" type="line"/>
      <point x="326.4666666666667" y="434.0" type="line"/>
      <point x="621.4666666666667" y="417.0" type="line"/>
    </contour>
    <contour>
      <point x="694.4" y="0.0" type="line"/>
      <point x="694.4" y="354.73333333333335" type="line"/>
      <point x="551.6" y="354.73333333333335" type="line"/>
      <point x="514.9333333333333" y="360.3333333333333" type="line"/>
      <point x="268.954" y="371.76800000000003"/>
      <point x="133.93333333333334" y="502.8453333333333"/>
      <point x="133.93333333333334" y="710.3666666666667" type="curve" smooth="yes"/>
      <point x="133.93333333333334" y="920.8359999999999"/>
      <point x="281.64733333333334" y="1055.0"/>
      <point x="549.0666666666666" y="1055.0" type="curve" smooth="yes"/>
      <point x="982.8666666666667" y="1055.0" type="line"/>
      <point x="982.8666666666667" y="0.0" type="line"/>
    </contour>
    <contour>
      <point x="607.0666666666666" y="548.7333333333333" type="curve" smooth="yes"/>
      <point x="694.4" y="548.7333333333333" type="line"/>
      <point x="694.4" y="866.0" type="line"/>
      <point x="607.0666666666666" y="866.0" type="line" smooth="yes"/>
      <point x="472.5306666666667" y="866.0"/>
      <point x="423.4" y="799.5549597386747"/>
      <point x="423.4" y="706.3666666666667" type="curve" smooth="yes"/>
      <point x="423.4" y="613.8954829863326"/>
      <point x="472.62" y="548.7333333333333"/>
    </contour>
  </outline>
</glyph>
<glyph name="quotedblleft" format="2">
  <advance width="1074"/>
  <unicode hex="201C"/>
  <outline>
    <contour>
      <point x="119.0" y="983.5" type="line"/>
      <point x="119.0" y="1133.0" type="line" smooth="yes"/>
      <point x="119.0" y="1297.15"/>
      <point x="193.70999999999998" y="1442.77"/>
      <point x="352.5" y="1556.0" type="curve"/>
      <point x="523.5" y="1437.0" type="line"/>
      <point x="458.51" y="1349.9"/>
      <point x="422.0" y="1258.95"/>
      <point x="422.0" y="1135.0" type="curve" smooth="yes"/>
      <point x="422.0" y="983.5" type="line"/>
    </contour>
    <contour>
      <point x="624.0" y="983.5" type="line"/>
      <point x="624.0" y="1133.0" type="line" smooth="yes"/>
      <point x="624.0" y="1297.15"/>
      <point x="698.71" y="1442.77"/>
      <point x="857.5" y="1556.0" type="curve"/>
      <point x="1028.5" y="1437.0" type="line"/>
      <point x="963.51" y="1349.9"/>
      <point x="927.0" y="1258.95"/>
      <point x="927.0" y="1135.0" type="curve" smooth="yes"/>
      <point x="927.0" y="983.5" type="line"/>
    </contour>
  </outline>
</glyph>
<glyph name="bullet" format="2">
  <advance width="814"/>
  <unicode hex="2022"/>
  <outline>
    <contour>
      <point x="90.5" y="773.0" type="curve" smooth="yes"/>
      <point x="90.5" y="943.85"/>
      <point x="221.41" y="1089.5"/>
      <point x="407.0" y="1089.5" type="curve" smooth="yes"/>
      <point x="592.59" y="1089.5"/>
      <point x="723.5" y="943.85"/>
      <point x="723.5" y="773.0" type="curve" smooth="yes"/>
      <point x="723.5" y="604.8299999999999"/>
      <point x="592.59" y="458.5"/>
      <point x="407.0" y="458.5" type="curve" smooth="yes"/>
      <point x="221.41" y="458.5"/>
      <point x="90.5" y="604.8299999999999"/>
    </contour>
  </outline>
</glyph>
<glyph name="lira" format="2">
  <advance width="1034"/>
  <unicode hex="20A4"/>
  <outline>
    <contour>
      <point x="1021.3333333333334" y="0.0" type="line"/>
      <point x="36.0" y="0.0" type="line"/>
      <point x="36.0" y="219.5" type="line"/>
      <point x="92.0" y="219.5" type="line" smooth="yes"/>
      <point x="215.28" y="219.5"/>
      <point x="261.21000000000004" y="338.03999999999996"/>
      <point x="245.8" y="497.5" type="curve" smooth="yes"/>
      <point x="193.3" y="1039.0" type="line" smooth="yes"/>
      <point x="164.9813333333333" y="1338.4453333333333"/>
      <point x="299.974" y="1476.0"/>
      <point x="577.6666666666666" y="1476.0" type="curve" smooth="yes"/>
      <point x="838.5200000000001" y="1476.0"/>
      <point x="977.3333333333334" y="1341.1813333333332"/>
      <point x="977.3333333333334" y="1068.0" type="curve" smooth="yes"/>
      <point x="977.3333333333334" y="1052.0" type="line"/>
      <point x="685.3333333333334" y="1052.0" type="line"/>
      <point x="685.3333333333334" y="1068.0" type="line" smooth="yes"/>
      <point x="690.6486666666666" y="1185.1606666666667"/>
      <point x="655.3766666666667" y="1263.3333333333333"/>
      <point x="579.6666666666666" y="1263.3333333333333" type="curve" smooth="yes"/>
      <point x="497.4353333333333" y="1263.3333333333333"/>
      <point x="470.63" y="1193.0553333333335"/>
      <point x="484.7" y="1039.0" type="curve" smooth="yes"/>
      <point x="533.2" y="531.5" type="line" smooth="yes"/>
      <point x="547.94" y="379.40999999999997"/>
      <point x="505.8" y="270.06"/>
      <point x="412.0" y="224.5" type="curve"/>
      <point x="1021.3333333333334" y="224.5" type="line"/>
    </contour>
    <contour>
      <point x="801.1666666666666" y="782.7666666666667" type="line"/>
      <point x="57.666666666666664" y="782.7666666666667" type="line"/>
      <point x="57.666666666666664" y="953.2333333333333" type="line"/>
      <point x="801.1666666666666" y="953.2333333333333" type="line"/>
    </contour>
    <contour>
      <point x="801.1666666666666" y="393.76666666666665" type="line"/>
      <point x="57.666666666666664" y="393.76666666666665" type="line"/>
      <point x="57.666666666666664" y="564.2333333333333" type="line"/>
      <point x="801.1666666666666" y="564.2333333333333" type="line"/>
    </contour>
  </outline>
</glyph>
<glyph name="dong" format="2">
  <advance width="1175"/>
  <unicode hex="20AB"/>
  <outline>
    <contour>
      <point x="112.66666666666667" y="485.8333333333333" type="curve" smooth="yes"/>
      <point x="112.66666666666667" y="529.1666666666666" type="line" smooth="yes"/>
      <point x="112.66666666666667" y="851.4813333333334"/>
      <point x="273.5213333333333" y="1035.0"/>
      <point x="514.9" y="1035.0" type="curve" smooth="yes"/>
      <point x="618.3033333333333" y="1035.0"/>
      <point x="703.2673333333332" y="986.0453333333332"/>
      <point x="743.3333333333334" y="912.1666666666666" type="curve"/>
      <point x="743.3333333333334" y="1456.0" type="line"/>
      <point x="1036.4666666666667" y="1456.0" type="line"/>
      <point x="1036.4666666666667" y="0.0" type="line"/>
      <point x="754.6333333333333" y="0.0" type="line"/>
      <point x="749.2" y="105.5" type="line"/>
      <point x="746.3333333333334" y="105.5" type="line"/>
      <point x="712.1186666666666" y="30.906666666666666"/>
      <point x="622.9639999999999" y="-20.0"/>
      <point x="505.1333333333333" y="-20.0" type="curve" smooth="yes"/>
      <point x="264.11199999999997" y="-20.0"/>
      <point x="112.66666666666667" y="169.50400000000002"/>
    </contour>
    <contour>
      <point x="407.6333333333333" y="439.3333333333333" type="line" smooth="yes"/>
      <point x="407.6333333333333" y="269.198"/>
      <point x="468.5746666666667" y="200.23333333333335"/>
      <point x="594.2666666666667" y="200.23333333333335" type="curve" smooth="yes"/>
      <point x="659.078" y="200.23333333333335"/>
      <point x="716.7393333333333" y="252.51533333333333"/>
      <point x="742.3333333333334" y="320.9" type="curve"/>
      <point x="742.3333333333334" y="683.2666666666667" type="line"/>
      <point x="718.0793333333334" y="752.3213333333333"/>
      <point x="667.3646666666666" y="815.2666666666667"/>
      <point x="589.6" y="815.2666666666667" type="curve" smooth="yes"/>
      <point x="472.84133333333335" y="815.2666666666667"/>
      <point x="407.6333333333333" y="738.2086666666668"/>
      <point x="407.6333333333333" y="575.6666666666666" type="curve" smooth="yes"/>
    </contour>
    <contour>
      <point x="1138.3333333333333" y="1160.2666666666667" type="line"/>
      <point x="347.6666666666667" y="1160.2666666666667" type="line"/>
      <point x="347.6666666666667" y="1322.7333333333333" type="line"/>
      <point x="1138.3333333333333" y="1322.7333333333333" type="line"/>
    </contour>
    <contour>
      <point x="1088.3333333333333" y="-281.73333333333335" type="line"/>
      <point x="89.66666666666666" y="-281.73333333333335" type="line"/>
      <point x="89.66666666666666" y="-132.26666666666668" type="line"/>
      <point x="1088.3333333333333" y="-132.26666666666668" type="line"/>
    </contour>
  </outline>
</glyph>
<glyph name="manat" format="2">
  <advance width="1414"/>
  <unicode hex="20BC"/>
  <outline>
    <contour>
      <point x="1310.3333333333333" y="866.0" type="curve" smooth="yes"/>
      <point x="1310.3333333333333" y="0.0" type="line"/>
      <point x="1028.3333333333333" y="0.0" type="line"/>
      <point x="1028.3333333333333" y="866.0" type="line" smooth="yes"/>
      <point x="1029.852" y="1073.7"/>
      <point x="911.7966666666666" y="1183.2666666666667"/>
      <point x="684.6666666666666" y="1183.2666666666667" type="curve" smooth="yes"/>
      <point x="457.53666666666663" y="1183.2666666666667"/>
      <point x="341.0" y="1073.7"/>
      <point x="341.0" y="866.0" type="curve" smooth="yes"/>
      <point x="341.0" y="0.0" type="line"/>
      <point x="59.0" y="0.0" type="line"/>
      <point x="59.0" y="866.0" type="line" smooth="yes"/>
      <point x="61.01" y="1227.13"/>
      <point x="287.3566666666667" y="1416.0"/>
      <point x="684.6666666666666" y="1416.0" type="curve" smooth="yes"/>
      <point x="1082.6466666666665" y="1416.0"/>
      <point x="1306.0453333333332" y="1227.13"/>
    </contour>
    <contour>
      <point x="814.6666666666666" y="0.0" type="line"/>
      <point x="554.6666666666666" y="0.0" type="line"/>
      <point x="554.6666666666666" y="1582.0" type="line"/>
      <point x="814.6666666666666" y="1582.0" type="line"/>
    </contour>
  </outline>
</glyph>
<glyph name="numero" format="2">
  <advance width="2275"/>
  <unicode hex="2116"/>
  <outline>
    <contour>
      <point x="155.0" y="0.0" type="line"/>
      <point x="155.0" y="1456.0" type="line"/>
      <point x="502.8666666666667" y="1456.0" type="line"/>
      <point x="861.7666666666667" y="574.5666666666666" type="line" smooth="yes"/>
      <point x="873.9606666666667" y="540.8433333333334"/>
      <point x="894.1479999999999" y="485.308"/>
      <point x="904.6" y="432.33333333333337" type="curve"/>
      <point x="911.4666666666667" y="432.33333333333337" type="line"/>
      <point x="908.876" y="484.36999999999995"/>
      <point x="910.1666666666666" y="537.0146666666666"/>
      <point x="910.1666666666666" y="585.4333333333334" type="curve" smooth="yes"/>
      <point x="910.1666666666666" y="1456.0" type="line"/>
      <point x="1172.3" y="1456.0" type="line"/>
      <point x="1172.3" y="0.0" type="line"/>
      <point x="818.0666666666666" y="0.0" type="line"/>
      <point x="463.8666666666667" y="896.6333333333333" type="line" smooth="yes"/>
      <point x="448.144" y="936.7439999999999"/>
      <point x="431.0713333333333" y="975.8766666666667"/>
      <point x="416.73333333333335" y="1025.2333333333333" type="curve"/>
      <point x="409.8666666666667" y="1025.2333333333333" type="line"/>
      <point x="412.45733333333334" y="974.626"/>
      <point x="413.3" y="928.6073333333334"/>
      <point x="413.3" y="878.0" type="curve" smooth="yes"/>
      <point x="413.3" y="0.0" type="line"/>
    </contour>
    <contour>
      <point x="1326.2333333333333" y="992.5" type="curve" smooth="yes"/>
      <point x="1326.2333333333333" y="1019.5" type="line" smooth="yes"/>
      <point x="1326.2333333333333" y="1298.89"/>
      <point x="1479.0966666666668" y="1473.5"/>
      <point x="1754.4666666666667" y="1473.5" type="curve" smooth="yes"/>
      <point x="2029.1666666666667" y="1473.5"/>
      <point x="2184.6633333333334" y="1298.89"/>
      <point x="2185.3333333333335" y="1019.5" type="curve" smooth="yes"/>
      <point x="2185.3333333333335" y="992.5" type="line" smooth="yes"/>
      <point x="2184.6633333333334" y="713.1099999999999"/>
      <point x="2037.2066666666667" y="539.0"/>
      <point x="1754.4666666666667" y="539.0" type="curve" smooth="yes"/>
      <point x="1471.0566666666666" y="539.0"/>
      <point x="1326.2333333333333" y="713.1099999999999"/>
    </contour>
    <contour>
      <point x="1582.6666666666667" y="1031.5" type="curve" smooth="yes"/>
      <point x="1582.6666666666667" y="978.5" type="line" smooth="yes"/>
      <point x="1582.6666666666667" y="819.04"/>
      <point x="1629.8466666666668" y="731.2"/>
      <point x="1754.4666666666667" y="731.2" type="curve" smooth="yes"/>
      <point x="1878.4166666666667" y="731.2"/>
      <point x="1927.9" y="819.04"/>
      <point x="1927.9" y="978.5" type="curve" smooth="yes"/>
      <point x="1927.9" y="1031.5" type="line" smooth="yes"/>
      <point x="1927.9" y="1190.29"/>
      <point x="1875.2366666666667" y="1284.1333333333334"/>
      <point x="1753.9666666666667" y="1284.1333333333334" type="curve" smooth="yes"/>
      <point x="1633.3666666666668" y="1284.1333333333334"/>
      <point x="1582.6666666666667" y="1190.29"/>
    </contour>
    <contour>
      <point x="1348.8" y="212.0" type="line"/>
      <point x="1348.8" y="434.0" type="line"/>
      <point x="2159.133333333333" y="434.0" type="line"/>
      <point x="2159.133333333333" y="212.0" type="line"/>
    </contour>
  </outline>
</glyph>
<glyph name="cedillacomb.case" format="2">
  <advance width="1024"/>
  <outline>
    <contour>
      <point x="395.0" y="32.0" type="line"/>
      <point x="574.5" y="32.0" type="line"/>
      <point x="547.5" y="-87.5" type="line"/>
      <point x="664.75" y="-104.25"/>
      <point x="772.0" y="-160.57"/>
      <point x="772.0" y="-280.5" type="curve" smooth="yes"/>
      <point x="772.0" y="-423.21000000000004"/>
      <point x="618.3199999999999" y="-519.84"/>
      <point x="286.0" y="-518.5" type="curve"/>
      <point x="277.0" y="-376.0" type="line"/>
      <point x="451.87" y="-376.67"/>
      <point x="521.0" y="-352.85"/>
      <point x="521.0" y="-282.5" type="curve" smooth="yes"/>
      <point x="521.0" y="-218.85"/>
      <point x="475.11" y="-201.55"/>
      <point x="352.5" y="-191.5" type="curve"/>
    </contour>
  </outline>
</glyph>
<glyph name="dieresiscomb.case" format="2">
  <advance width="1024"/>
  <outline>
    <contour>
      <point x="113.0" y="1808.0" type="curve" smooth="yes"/>
      <point x="113.0" y="1895.1"/>
      <point x="168.0" y="1952.5"/>
      <point x="268.5" y="1952.5" type="curve" smooth="yes"/>
      <point x="366.32" y="1952.5"/>
      <point x="424.0" y="1892.42"/>
      <point x="424.0" y="1808.0" type="curve" smooth="yes"/>
      <point x="424.0" y="1722.24"/>
      <point x="369.17" y="1664.0"/>
      <point x="268.0" y="1664.0" type="curve" smooth="yes"/>
      <point x="169.51" y="1664.0"/>
      <point x="113.0" y="1724.25"/>
    </contour>
    <contour>
      <point x="599.5" y="1808.0" type="curve" smooth="yes"/>
      <point x="599.5" y="1895.1"/>
      <point x="654.5" y="1952.5"/>
      <point x="755.0" y="1952.5" type="curve" smooth="yes"/>
      <point x="853.49" y="1952.5"/>
      <point x="911.0" y="1892.42"/>
      <point x="911.0" y="1808.0" type="curve" smooth="yes"/>
      <point x="911.0" y="1722.24"/>
      <point x="856.34" y="1664.0"/>
      <point x="754.5" y="1664.0" type="curve" smooth="yes"/>
      <point x="656.01" y="1664.0"/>
      <point x="599.5" y="1724.25"/>
    </contour>
  </outline>
</glyph>
<glyph name="dotaccentcomb.case" format="2">
  <advance width="1024"/>
  <outline>
    <contour>
      <point x="354.5" y="1820.5" type="curve" smooth="yes"/>
      <point x="354.5" y="1908.94"/>
      <point x="409.99" y="1967.0"/>
      <point x="512.5" y="1967.0" type="curve" smooth="yes"/>
      <point x="611.66" y="1967.0"/>
      <point x="670.5" y="1906.26"/>
      <point x="670.5" y="1820.5" type="curve" smooth="yes"/>
      <point x="670.5" y="1732.73"/>
      <point x="614.51" y="1674.0"/>
      <point x="512.0" y="1674.0" type="curve" smooth="yes"/>
      <point x="412.16999999999996" y="1674.0"/>
      <point x="354.5" y="1735.41"/>
    </contour>
  </outline>
</glyph>
<glyph name="eight.prop" format="2">
  <advance width="1030"/>
  <outline>
    <contour>
      <point x="64.03333333333333" y="388.0" type="curve" smooth="yes"/>
      <point x="64.03333333333333" y="580.2006666666666"/>
      <point x="177.18866666666665" y="700.6706666666666"/>
      <point x="306.76666666666665" y="749.0" type="curve"/>
      <point x="306.76666666666665" y="753.0" type="line"/>
      <point x="187.64066666666668" y="811.4686666666666"/>
      <point x="104.63333333333333" y="926.0893333333333"/>
      <point x="104.63333333333333" y="1093.5" type="curve" smooth="yes"/>
      <point x="104.63333333333333" y="1324.65"/>
      <point x="252.5519999999999" y="1485.5"/>
      <point x="514.5666666666667" y="1485.5" type="curve" smooth="yes"/>
      <point x="776.5813333333333" y="1485.5"/>
      <point x="926.0" y="1323.48"/>
      <point x="926.0" y="1093.0" type="curve" smooth="yes"/>
      <point x="926.0" y="926.2593333333334"/>
      <point x="853.5733333333334" y="813.4786666666666"/>
      <point x="733.8666666666667" y="753.0" type="curve"/>
      <point x="733.8666666666667" y="749.0" type="line"/>
      <point x="864.7846666666666" y="704.6906666666666"/>
      <point x="966.1" y="581.63"/>
      <point x="966.1" y="388.0" type="curve" smooth="yes"/>
      <point x="966.1" y="123.34999999999997"/>
      <point x="799.0933333333332" y="-29.5"/>
      <point x="514.5666666666667" y="-29.5" type="curve" smooth="yes"/>
      <point x="230.70999999999998" y="-29.5"/>
      <point x="64.03333333333333" y="123.34999999999997"/>
    </contour>
    <contour>
      <point x="366.5" y="409.93333333333334" type="curve" smooth="yes"/>
      <point x="366.5" y="275.174"/>
      <point x="409.33199999999994" y="187.16666666666666"/>
      <point x="514.5666666666667" y="187.16666666666666" type="curve" smooth="yes"/>
      <point x="618.372" y="187.16666666666666"/>
      <point x="662.5666666666666" y="275.174"/>
      <point x="662.5666666666666" y="409.93333333333334" type="curve" smooth="yes"/>
      <point x="662.5666666666666" y="550.142"/>
      <point x="625.742" y="639.1333333333333"/>
      <point x="514.5666666666667" y="639.1333333333333" type="curve" smooth="yes"/>
      <point x="401.96199999999993" y="639.1333333333333"/>
      <point x="366.5" y="550.142"/>
    </contour>
    <contour>
      <point x="396.6" y="1062.5666666666666" type="curve" smooth="yes"/>
      <point x="396.6" y="935.7579999999999"/>
      <point x="419.78399999999993" y="850.3666666666667"/>
      <point x="514.5666666666667" y="850.3666666666667" type="curve" smooth="yes"/>
      <point x="607.92" y="850.3666666666667"/>
      <point x="633.5333333333333" y="935.7579999999999"/>
      <point x="633.5333333333333" y="1062.5666666666666" type="curve" smooth="yes"/>
      <point x="633.5333333333333" y="1184.6853333333333"/>
      <point x="603.23" y="1268.3333333333333"/>
      <point x="514.5666666666667" y="1268.3333333333333" type="curve" smooth="yes"/>
      <point x="424.47399999999993" y="1268.3333333333333"/>
      <point x="396.6" y="1184.6853333333333"/>
    </contour>
  </outline>
</glyph>
<glyph name="hard.bgr" format="2">
  <advance width="1141"/>
  <outline>
    <contour>
      <point x="222.0" y="361.0" type="curve" smooth="yes"/>
      <point x="222.0" y="832.5" type="line"/>
      <point x="30.0" y="832.5" type="line"/>
      <point x="30.0" y="1055.0" type="line"/>
      <point x="510.4666666666667" y="1055.0" type="line"/>
      <point x="510.4666666666667" y="728.0" type="line"/>
      <point x="628.8" y="728.0" type="line" smooth="yes"/>
      <point x="961.8346666666667" y="728.0"/>
      <point x="1081.9333333333334" y="585.5913333333333"/>
      <point x="1081.9333333333334" y="364.0" type="curve" smooth="yes"/>
      <point x="1081.9333333333334" y="98.68"/>
      <point x="915.134" y="-30.0"/>
      <point x="651.4666666666667" y="-30.0" type="curve" smooth="yes"/>
      <point x="375.0693333333333" y="-30.0"/>
      <point x="222.0" y="103.71999999999997"/>
    </contour>
    <contour>
      <point x="510.4666666666667" y="348.5" type="line" smooth="yes"/>
      <point x="510.4666666666667" y="251.35"/>
      <point x="549.18" y="180.5"/>
      <point x="651.4666666666667" y="180.5" type="curve" smooth="yes"/>
      <point x="751.0733333333333" y="180.5"/>
      <point x="792.4666666666667" y="249.99"/>
      <point x="792.4666666666667" y="352.5" type="curve" smooth="yes"/>
      <point x="792.4666666666667" y="468.360741433036"/>
      <point x="741.3733333333334" y="524.0"/>
      <point x="603.8" y="524.0" type="curve" smooth="yes"/>
      <point x="510.4666666666667" y="524.0" type="line"/>
    </contour>
  </outline>
</glyph>
<glyph name="hookabovecomb.case" format="2">
  <advance width="1024"/>
  <outline>
    <contour>
      <point x="359.0" y="1568.5" type="line"/>
      <point x="359.0" y="1609.0" type="line" smooth="yes"/>
      <point x="359.0" y="1697.44"/>
      <point x="400.85" y="1747.94"/>
      <point x="498.0" y="1760.0" type="curve" smooth="yes"/>
      <point x="560.31" y="1768.04"/>
      <point x="579.0" y="1782.27"/>
      <point x="579.0" y="1828.5" type="curve" smooth="yes"/>
      <point x="579.0" y="1872.72"/>
      <point x="543.97" y="1892.0"/>
      <point x="483.0" y="1892.0" type="curve" smooth="yes"/>
      <point x="410.64" y="1892.0"/>
      <point x="315.24" y="1860.39"/>
      <point x="300.5" y="1849.0" type="curve"/>
      <point x="236.5" y="1995.0" type="line"/>
      <point x="286.08" y="2021.8"/>
      <point x="407.59" y="2057.5"/>
      <point x="523.5" y="2057.5" type="curve" smooth="yes"/>
      <point x="693.6800000000001" y="2057.5"/>
      <point x="783.0" y="1973.33"/>
      <point x="783.0" y="1840.0" type="curve" smooth="yes"/>
      <point x="783.0" y="1699.97"/>
      <point x="695.44" y="1615.74"/>
      <point x="506.5" y="1601.0" type="curve"/>
      <point x="506.5" y="1568.5" type="line"/>
    </contour>
  </outline>
</glyph>
<glyph name="yu.bgr" format="2">
  <advance width="1524"/>
  <outline>
    <contour>
      <point x="530.1666666666666" y="512.0" type="curve" smooth="yes"/>
      <point x="530.1666666666666" y="544.0" type="line" smooth="yes"/>
      <point x="530.1666666666666" y="906.2466666666667"/>
      <point x="716.6926666666667" y="1085.5"/>
      <point x="990.6333333333333" y="1085.5" type="curve" smooth="yes"/>
      <point x="1264.574" y="1085.5"/>
      <point x="1452.1666666666667" y="906.2466666666667"/>
      <point x="1452.1666666666667" y="544.0" type="curve" smooth="yes"/>
      <point x="1452.1666666666667" y="512.0" type="line" smooth="yes"/>
      <point x="1452.1666666666667" y="149.75333333333327"/>
      <point x="1264.574" y="-30.0"/>
      <point x="990.6333333333333" y="-30.0" type="curve" smooth="yes"/>
      <point x="716.6926666666667" y="-30.0"/>
      <point x="530.1666666666666" y="149.75333333333327"/>
    </contour>
    <contour>
      <point x="825.6333333333333" y="590.0" type="curve" smooth="yes"/>
      <point x="825.6333333333333" y="466.0" type="line" smooth="yes"/>
      <point x="825.6333333333333" y="263.48133333333334"/>
      <point x="885.4433333333333" y="191.23333333333335"/>
      <point x="990.6333333333333" y="191.23333333333335" type="curve" smooth="yes"/>
      <point x="1095.1533333333332" y="191.23333333333335"/>
      <point x="1156.2" y="263.48133333333334"/>
      <point x="1156.2" y="466.0" type="curve" smooth="yes"/>
      <point x="1156.2" y="590.0" type="line" smooth="yes"/>
      <point x="1156.2" y="798.9953333333334"/>
      <point x="1099.6200000000001" y="864.2666666666667"/>
      <point x="990.6333333333333" y="864.2666666666667" type="curve" smooth="yes"/>
      <point x="880.9766666666666" y="864.2666666666667"/>
      <point x="825.6333333333333" y="791.8486666666666"/>
    </contour>
    <contour>
      <point x="134.0" y="1531.0" type="line"/>
      <point x="422.4666666666667" y="1531.0" type="line"/>
      <point x="422.4666666666667" y="650.5" type="line"/>
      <point x="675.0666666666666" y="650.5" type="line"/>
      <point x="675.0666666666666" y="428.0" type="line"/>
      <point x="422.4666666666667" y="428.0" type="line"/>
      <point x="422.4666666666667" y="0.0" type="line"/>
      <point x="134.0" y="0.0" type="line"/>
    </contour>
  </outline>
</glyph>
